<svg width="89" height="15" viewBox="0 0 89 15" fill="none" xmlns="http://www.w3.org/2000/svg">
  <path d="M11.1094 10.3086L12.832 1.20312H15.46L12.6211 14H9.9668L7.88379 5.43945L5.80078 14H3.14648L0.307617 1.20312H2.93555L4.66699 10.291L6.77637 1.20312H9.00879L11.1094 10.3086ZM19.4062 14H16.8574V4.49023H19.4062V14ZM16.708 2.0293C16.708 1.64844 16.834 1.33496 17.0859 1.08887C17.3438 0.842773 17.6924 0.719727 18.1318 0.719727C18.5654 0.719727 18.9111 0.842773 19.1689 1.08887C19.4268 1.33496 19.5557 1.64844 19.5557 2.0293C19.5557 2.41602 19.4238 2.73242 19.1602 2.97852C18.9023 3.22461 18.5596 3.34766 18.1318 3.34766C17.7041 3.34766 17.3584 3.22461 17.0947 2.97852C16.8369 2.73242 16.708 2.41602 16.708 2.0293ZM24.9609 10.1855L24.0469 11.0996V14H21.5068V0.5H24.0469V7.97949L24.5391 7.34668L26.9736 4.49023H30.0234L26.5869 8.4541L30.3223 14H27.4043L24.9609 10.1855ZM33.8027 14H31.2539V4.49023H33.8027V14ZM31.1045 2.0293C31.1045 1.64844 31.2305 1.33496 31.4824 1.08887C31.7402 0.842773 32.0889 0.719727 32.5283 0.719727C32.9619 0.719727 33.3076 0.842773 33.5654 1.08887C33.8232 1.33496 33.9521 1.64844 33.9521 2.0293C33.9521 2.41602 33.8203 2.73242 33.5566 2.97852C33.2988 3.22461 32.9561 3.34766 32.5283 3.34766C32.1006 3.34766 31.7549 3.22461 31.4912 2.97852C31.2334 2.73242 31.1045 2.41602 31.1045 2.0293ZM43.7695 8.77051H38.707V14H36.0703V1.20312H44.4023V3.33887H38.707V6.64355H43.7695V8.77051ZM45.1758 9.15723C45.1758 8.21387 45.3574 7.37305 45.7207 6.63477C46.084 5.89648 46.6055 5.3252 47.2852 4.9209C47.9707 4.5166 48.7646 4.31445 49.667 4.31445C50.9502 4.31445 51.9961 4.70703 52.8047 5.49219C53.6191 6.27734 54.0732 7.34375 54.167 8.69141L54.1846 9.3418C54.1846 10.8008 53.7773 11.9727 52.9629 12.8574C52.1484 13.7363 51.0557 14.1758 49.6846 14.1758C48.3135 14.1758 47.2178 13.7363 46.3975 12.8574C45.583 11.9785 45.1758 10.7832 45.1758 9.27148V9.15723ZM47.7158 9.3418C47.7158 10.2441 47.8857 10.9355 48.2256 11.416C48.5654 11.8906 49.0518 12.1279 49.6846 12.1279C50.2998 12.1279 50.7803 11.8936 51.126 11.4248C51.4717 10.9502 51.6445 10.1943 51.6445 9.15723C51.6445 8.27246 51.4717 7.58691 51.126 7.10059C50.7803 6.61426 50.2939 6.37109 49.667 6.37109C49.0459 6.37109 48.5654 6.61426 48.2256 7.10059C47.8857 7.58105 47.7158 8.32812 47.7158 9.3418ZM55.3535 9.15723C55.3535 8.21387 55.5352 7.37305 55.8984 6.63477C56.2617 5.89648 56.7832 5.3252 57.4629 4.9209C58.1484 4.5166 58.9424 4.31445 59.8447 4.31445C61.1279 4.31445 62.1738 4.70703 62.9824 5.49219C63.7969 6.27734 64.251 7.34375 64.3447 8.69141L64.3623 9.3418C64.3623 10.8008 63.9551 11.9727 63.1406 12.8574C62.3262 13.7363 61.2334 14.1758 59.8623 14.1758C58.4912 14.1758 57.3955 13.7363 56.5752 12.8574C55.7607 11.9785 55.3535 10.7832 55.3535 9.27148V9.15723ZM57.8936 9.3418C57.8936 10.2441 58.0635 10.9355 58.4033 11.416C58.7432 11.8906 59.2295 12.1279 59.8623 12.1279C60.4775 12.1279 60.958 11.8936 61.3037 11.4248C61.6494 10.9502 61.8223 10.1943 61.8223 9.15723C61.8223 8.27246 61.6494 7.58691 61.3037 7.10059C60.958 6.61426 60.4717 6.37109 59.8447 6.37109C59.2236 6.37109 58.7432 6.61426 58.4033 7.10059C58.0635 7.58105 57.8936 8.32812 57.8936 9.3418ZM65.5312 9.1748C65.5312 7.69238 65.8623 6.51172 66.5244 5.63281C67.1924 4.75391 68.1035 4.31445 69.2578 4.31445C70.1836 4.31445 70.9482 4.66016 71.5518 5.35156V0.5H74.1006V14H71.8066L71.6836 12.9893C71.0508 13.7803 70.2363 14.1758 69.2402 14.1758C68.1211 14.1758 67.2217 13.7363 66.542 12.8574C65.8682 11.9727 65.5312 10.7451 65.5312 9.1748ZM68.0713 9.35938C68.0713 10.25 68.2266 10.9326 68.5371 11.4072C68.8477 11.8818 69.2988 12.1191 69.8906 12.1191C70.6758 12.1191 71.2295 11.7881 71.5518 11.126V7.37305C71.2354 6.71094 70.6875 6.37988 69.9082 6.37988C68.6836 6.37988 68.0713 7.37305 68.0713 9.35938ZM78.75 14H76.2012V4.49023H78.75V14ZM76.0518 2.0293C76.0518 1.64844 76.1777 1.33496 76.4297 1.08887C76.6875 0.842773 77.0361 0.719727 77.4756 0.719727C77.9092 0.719727 78.2549 0.842773 78.5127 1.08887C78.7705 1.33496 78.8994 1.64844 78.8994 2.0293C78.8994 2.41602 78.7676 2.73242 78.5039 2.97852C78.2461 3.22461 77.9033 3.34766 77.4756 3.34766C77.0479 3.34766 76.7021 3.22461 76.4385 2.97852C76.1807 2.73242 76.0518 2.41602 76.0518 2.0293ZM86.3613 14C86.2441 13.7715 86.1592 13.4873 86.1064 13.1475C85.4912 13.833 84.6914 14.1758 83.707 14.1758C82.7754 14.1758 82.002 13.9062 81.3867 13.3672C80.7773 12.8281 80.4727 12.1484 80.4727 11.3281C80.4727 10.3203 80.8447 9.54688 81.5889 9.00781C82.3389 8.46875 83.4199 8.19629 84.832 8.19043H86.001V7.64551C86.001 7.20605 85.8867 6.85449 85.6582 6.59082C85.4355 6.32715 85.0811 6.19531 84.5947 6.19531C84.167 6.19531 83.8301 6.29785 83.584 6.50293C83.3438 6.70801 83.2236 6.98926 83.2236 7.34668H80.6836C80.6836 6.7959 80.8535 6.28613 81.1934 5.81738C81.5332 5.34863 82.0137 4.98242 82.6348 4.71875C83.2559 4.44922 83.9531 4.31445 84.7266 4.31445C85.8984 4.31445 86.8271 4.61035 87.5127 5.20215C88.2041 5.78809 88.5498 6.61426 88.5498 7.68066V11.8027C88.5557 12.7051 88.6816 13.3877 88.9277 13.8506V14H86.3613ZM84.2607 12.2334C84.6357 12.2334 84.9814 12.1514 85.2979 11.9873C85.6143 11.8174 85.8486 11.5918 86.001 11.3105V9.67578H85.0518C83.7803 9.67578 83.1035 10.1152 83.0215 10.9941L83.0127 11.1436C83.0127 11.46 83.124 11.7207 83.3467 11.9258C83.5693 12.1309 83.874 12.2334 84.2607 12.2334Z" fill="white"/>
</svg>
