<svg width="295" height="48" viewBox="0 0 295 48" fill="none" xmlns="http://www.w3.org/2000/svg">
<rect x="-0.000976562" y="0.875" width="1" height="46.25" fill="#012F5A"/>
<g clip-path="url(#clip0)">
<path d="M30.499 20H18.499C17.674 20 17.0065 20.675 17.0065 21.5L16.999 30.5C16.999 31.325 17.674 32 18.499 32H30.499C31.324 32 31.999 31.325 31.999 30.5V21.5C31.999 20.675 31.324 20 30.499 20ZM30.499 30.5H18.499V23L24.499 26.75L30.499 23V30.5ZM24.499 25.25L18.499 21.5H30.499L24.499 25.25Z" fill="white"/>
</g>
<path d="M21 12C21 6.47715 25.4772 2 31 2H33C38.5228 2 43 6.47715 43 12C43 17.5228 38.5228 22 33 22H31C25.4772 22 21 17.5228 21 12Z" fill="#FF4D4F"/>
<path d="M28.6211 16H30.0811V8.9541H28.6162C28.6113 8.95898 26.7949 10.2139 26.79 10.2188V11.5469C26.7998 11.542 28.5576 10.3262 28.5625 10.3262H28.6211V16ZM35.0957 16H36.5557V8.9541H35.0908C35.0859 8.95898 33.2695 10.2139 33.2646 10.2188V11.5469C33.2744 11.542 35.0322 10.3262 35.0371 10.3262H35.0957V16Z" fill="white"/>
<g clip-path="url(#clip1)">
<circle cx="90.5" cy="24" r="11.125" fill="#C4C4C4"/>
</g>
<path d="M115.805 29H114.485L109.475 21.3301V29H108.155V19.0469H109.475L114.499 26.751V19.0469H115.805V29ZM122.504 29C122.431 28.8542 122.372 28.5944 122.326 28.2207C121.738 28.8314 121.036 29.1367 120.221 29.1367C119.492 29.1367 118.892 28.9316 118.423 28.5215C117.958 28.1068 117.726 27.5827 117.726 26.9492C117.726 26.179 118.017 25.582 118.601 25.1582C119.188 24.7298 120.013 24.5156 121.075 24.5156H122.306V23.9346C122.306 23.4925 122.174 23.1416 121.909 22.8818C121.645 22.6175 121.255 22.4854 120.74 22.4854C120.289 22.4854 119.911 22.5993 119.605 22.8271C119.3 23.055 119.147 23.3307 119.147 23.6543H117.876C117.876 23.2852 118.006 22.9297 118.266 22.5879C118.53 22.2415 118.885 21.9681 119.332 21.7676C119.783 21.5671 120.278 21.4668 120.815 21.4668C121.668 21.4668 122.335 21.681 122.818 22.1094C123.301 22.5332 123.552 23.1188 123.57 23.8662V27.2705C123.57 27.9495 123.657 28.4896 123.83 28.8906V29H122.504ZM120.405 28.0361C120.802 28.0361 121.178 27.9336 121.533 27.7285C121.889 27.5234 122.146 27.2568 122.306 26.9287V25.4111H121.314C119.765 25.4111 118.99 25.8646 118.99 26.7715C118.99 27.168 119.122 27.4779 119.387 27.7012C119.651 27.9245 119.991 28.0361 120.405 28.0361ZM126.742 21.6035L126.776 22.4238C127.319 21.7858 128.05 21.4668 128.971 21.4668C130.005 21.4668 130.709 21.8633 131.083 22.6562C131.329 22.3008 131.648 22.0137 132.04 21.7949C132.437 21.5762 132.904 21.4668 133.441 21.4668C135.064 21.4668 135.889 22.3258 135.916 24.0439V29H134.651V24.1191C134.651 23.5905 134.531 23.1963 134.289 22.9365C134.048 22.6722 133.642 22.54 133.072 22.54C132.603 22.54 132.213 22.6813 131.903 22.9639C131.593 23.2419 131.413 23.6178 131.363 24.0918V29H130.092V24.1533C130.092 23.0778 129.565 22.54 128.513 22.54C127.683 22.54 127.116 22.8932 126.811 23.5996V29H125.546V21.6035H126.742ZM140.899 29.1367C139.897 29.1367 139.081 28.8086 138.452 28.1523C137.823 27.4915 137.509 26.6097 137.509 25.5068V25.2744C137.509 24.5407 137.648 23.8867 137.926 23.3125C138.208 22.7337 138.6 22.2826 139.102 21.959C139.607 21.6309 140.154 21.4668 140.742 21.4668C141.704 21.4668 142.451 21.7835 142.984 22.417C143.518 23.0505 143.784 23.9574 143.784 25.1377V25.6641H138.773C138.792 26.3932 139.004 26.9834 139.409 27.4346C139.819 27.8812 140.339 28.1045 140.968 28.1045C141.414 28.1045 141.793 28.0133 142.103 27.8311C142.412 27.6488 142.684 27.4072 142.916 27.1064L143.688 27.708C143.069 28.6605 142.139 29.1367 140.899 29.1367ZM140.742 22.5059C140.232 22.5059 139.803 22.6927 139.457 23.0664C139.111 23.4355 138.896 23.9551 138.814 24.625H142.52V24.5293C142.483 23.8867 142.31 23.39 142 23.0391C141.69 22.6836 141.271 22.5059 140.742 22.5059ZM151.857 24.5635C150.732 24.2399 149.911 23.8434 149.396 23.374C148.886 22.9001 148.631 22.3167 148.631 21.624C148.631 20.8402 148.943 20.193 149.567 19.6826C150.196 19.1676 151.012 18.9102 152.015 18.9102C152.698 18.9102 153.307 19.0423 153.84 19.3066C154.378 19.571 154.792 19.9355 155.084 20.4004C155.38 20.8652 155.528 21.3734 155.528 21.9248H154.209C154.209 21.3232 154.018 20.8516 153.635 20.5098C153.252 20.1634 152.712 19.9902 152.015 19.9902C151.368 19.9902 150.862 20.1338 150.497 20.4209C150.137 20.7035 149.957 21.0977 149.957 21.6035C149.957 22.0091 150.128 22.3532 150.47 22.6357C150.816 22.9137 151.402 23.1689 152.227 23.4014C153.056 23.6338 153.703 23.8913 154.168 24.1738C154.637 24.4518 154.984 24.7777 155.207 25.1514C155.435 25.5251 155.549 25.9648 155.549 26.4707C155.549 27.2773 155.234 27.9245 154.605 28.4121C153.977 28.8952 153.136 29.1367 152.083 29.1367C151.399 29.1367 150.761 29.0068 150.169 28.7471C149.576 28.4827 149.118 28.1227 148.795 27.667C148.476 27.2113 148.316 26.694 148.316 26.1152H149.636C149.636 26.7168 149.857 27.193 150.299 27.5439C150.745 27.8903 151.34 28.0635 152.083 28.0635C152.776 28.0635 153.307 27.9222 153.676 27.6396C154.045 27.3571 154.229 26.972 154.229 26.4844C154.229 25.9967 154.059 25.6208 153.717 25.3564C153.375 25.0876 152.755 24.8232 151.857 24.5635ZM161.605 28.2686C161.113 28.8473 160.391 29.1367 159.438 29.1367C158.65 29.1367 158.049 28.9089 157.634 28.4531C157.224 27.9928 157.016 27.3138 157.012 26.416V21.6035H158.276V26.3818C158.276 27.5029 158.732 28.0635 159.644 28.0635C160.61 28.0635 161.252 27.7035 161.571 26.9834V21.6035H162.836V29H161.633L161.605 28.2686ZM168.339 22.7383C168.147 22.7064 167.94 22.6904 167.717 22.6904C166.887 22.6904 166.325 23.0436 166.028 23.75V29H164.764V21.6035H165.994L166.015 22.458C166.429 21.7972 167.017 21.4668 167.778 21.4668C168.024 21.4668 168.211 21.4987 168.339 21.5625V22.7383ZM170.704 21.6035L170.745 22.5332C171.31 21.8223 172.049 21.4668 172.96 21.4668C174.523 21.4668 175.312 22.3486 175.325 24.1123V29H174.061V24.1055C174.056 23.5723 173.933 23.1781 173.691 22.9229C173.454 22.6676 173.083 22.54 172.577 22.54C172.167 22.54 171.807 22.6494 171.497 22.8682C171.187 23.0869 170.946 23.374 170.772 23.7295V29H169.508V21.6035H170.704ZM181.799 29C181.726 28.8542 181.667 28.5944 181.621 28.2207C181.033 28.8314 180.331 29.1367 179.516 29.1367C178.786 29.1367 178.187 28.9316 177.718 28.5215C177.253 28.1068 177.021 27.5827 177.021 26.9492C177.021 26.179 177.312 25.582 177.896 25.1582C178.483 24.7298 179.308 24.5156 180.37 24.5156H181.601V23.9346C181.601 23.4925 181.468 23.1416 181.204 22.8818C180.94 22.6175 180.55 22.4854 180.035 22.4854C179.584 22.4854 179.206 22.5993 178.9 22.8271C178.595 23.055 178.442 23.3307 178.442 23.6543H177.171C177.171 23.2852 177.301 22.9297 177.561 22.5879C177.825 22.2415 178.18 21.9681 178.627 21.7676C179.078 21.5671 179.573 21.4668 180.11 21.4668C180.963 21.4668 181.63 21.681 182.113 22.1094C182.596 22.5332 182.847 23.1188 182.865 23.8662V27.2705C182.865 27.9495 182.952 28.4896 183.125 28.8906V29H181.799ZM179.7 28.0361C180.097 28.0361 180.473 27.9336 180.828 27.7285C181.184 27.5234 181.441 27.2568 181.601 26.9287V25.4111H180.609C179.06 25.4111 178.285 25.8646 178.285 26.7715C178.285 27.168 178.417 27.4779 178.682 27.7012C178.946 27.9245 179.285 28.0361 179.7 28.0361ZM186.037 21.6035L186.071 22.4238C186.614 21.7858 187.345 21.4668 188.266 21.4668C189.3 21.4668 190.004 21.8633 190.378 22.6562C190.624 22.3008 190.943 22.0137 191.335 21.7949C191.731 21.5762 192.199 21.4668 192.736 21.4668C194.359 21.4668 195.184 22.3258 195.211 24.0439V29H193.946V24.1191C193.946 23.5905 193.826 23.1963 193.584 22.9365C193.342 22.6722 192.937 22.54 192.367 22.54C191.898 22.54 191.508 22.6813 191.198 22.9639C190.888 23.2419 190.708 23.6178 190.658 24.0918V29H189.387V24.1533C189.387 23.0778 188.86 22.54 187.808 22.54C186.978 22.54 186.411 22.8932 186.105 23.5996V29H184.841V21.6035H186.037ZM200.194 29.1367C199.192 29.1367 198.376 28.8086 197.747 28.1523C197.118 27.4915 196.804 26.6097 196.804 25.5068V25.2744C196.804 24.5407 196.943 23.8867 197.221 23.3125C197.503 22.7337 197.895 22.2826 198.396 21.959C198.902 21.6309 199.449 21.4668 200.037 21.4668C200.999 21.4668 201.746 21.7835 202.279 22.417C202.812 23.0505 203.079 23.9574 203.079 25.1377V25.6641H198.068C198.087 26.3932 198.299 26.9834 198.704 27.4346C199.114 27.8812 199.634 28.1045 200.263 28.1045C200.709 28.1045 201.088 28.0133 201.397 27.8311C201.707 27.6488 201.979 27.4072 202.211 27.1064L202.983 27.708C202.364 28.6605 201.434 29.1367 200.194 29.1367ZM200.037 22.5059C199.527 22.5059 199.098 22.6927 198.752 23.0664C198.406 23.4355 198.191 23.9551 198.109 24.625H201.814V24.5293C201.778 23.8867 201.605 23.39 201.295 23.0391C200.985 22.6836 200.566 22.5059 200.037 22.5059Z" fill="white"/>
<path d="M215.146 28.2141L220.647 21.1703C220.662 21.1519 220.671 21.1298 220.673 21.1065C220.676 21.0832 220.671 21.0597 220.661 21.0386C220.651 21.0176 220.635 20.9999 220.615 20.9875C220.595 20.9751 220.572 20.9686 220.549 20.9688L219.341 20.9688C219.264 20.9688 219.191 21.0047 219.144 21.0641L214.752 26.6891L210.36 21.0641C210.313 21.0031 210.239 20.9688 210.163 20.9688L208.955 20.9688C208.85 20.9688 208.792 21.0891 208.857 21.1703L214.358 28.2141C214.405 28.2739 214.465 28.3224 214.533 28.3557C214.601 28.389 214.676 28.4063 214.752 28.4063C214.828 28.4063 214.903 28.389 214.971 28.3557C215.039 28.3224 215.099 28.2739 215.146 28.2141Z" fill="white"/>
<g clip-path="url(#clip2)">
<path d="M262.781 24.3994H258.468V27.9268H263.479V29H257.155V19.0469H263.41V20.127H258.468V23.3262H262.781V24.3994ZM272.762 29H271.442L266.432 21.3301V29H265.112V19.0469H266.432L271.456 26.751V19.0469H272.762V29Z" fill="white"/>
</g>
<path d="M283.394 27.5266L288.895 20.4828C288.91 20.4644 288.919 20.4423 288.921 20.419C288.924 20.3957 288.92 20.3722 288.909 20.3511C288.899 20.3301 288.883 20.3124 288.863 20.3C288.843 20.2876 288.82 20.2811 288.797 20.2813L287.589 20.2813C287.512 20.2813 287.439 20.3172 287.392 20.3766L283 26.0016L278.608 20.3766C278.561 20.3156 278.487 20.2813 278.411 20.2813L277.203 20.2813C277.098 20.2813 277.041 20.4016 277.105 20.4828L282.606 27.5266C282.653 27.5864 282.713 27.6349 282.781 27.6682C282.849 27.7015 282.924 27.7188 283 27.7188C283.076 27.7188 283.151 27.7015 283.219 27.6682C283.287 27.6349 283.347 27.5864 283.394 27.5266Z" fill="white"/>
<defs>
<clipPath id="clip0">
<rect width="15" height="16" fill="white" transform="translate(16.999 16)"/>
</clipPath>
<clipPath id="clip1">
<rect width="32" height="22.25" fill="white" transform="translate(75 12.875)"/>
</clipPath>
<clipPath id="clip2">
<rect width="18" height="18" fill="white" transform="translate(256.078 15.4062)"/>
</clipPath>
</defs>
</svg>
